<svg id="Layer_1" data-name="Layer 1" xmlns="http://www.w3.org/2000/svg" viewBox="0 0 348.89 272.85"><defs><style>.cls-1{fill:#95b749;stroke:#fcfcfc;stroke-width:0.25px;}.cls-1,.cls-2{stroke-miterlimit:10;}.cls-2{fill:none;stroke:#444;stroke-width:5px;}.cls-3{fill:#444;}</style></defs><title>meetingTimeline</title><polyline class="cls-1" points="348.82 242.36 308.58 272.72 1.18 272.72 40.61 242.36 0.37 212 307.78 212 348.01 242.36"/><path class="cls-2" d="M129.08,92.32c.39.53,9.15,11.92,9.15,11.92h79.88l9.82-11.92"/><circle class="cls-2" cx="126.7" cy="52.36" r="11.53"/><path class="cls-2" d="M164.92,104.27v-6a5.34,5.34,0,0,0-5.34-5.33H146.35L132.91,76.57a9.4,9.4,0,0,0-7.25-3.39h0A9.85,9.85,0,0,0,115.84,83v34.6c0,5.41,4.42,10.61,9.82,10.61h16.51a5.81,5.81,0,0,1,5.37,3.58c2.35,5.68,6.67,16.1,6.74,16.32"/><path class="cls-2" d="M164.92,147.33c-.17-.53-6.54-19.37-9.62-27.87a6.16,6.16,0,0,0-5.81-4.08H138.23V104.26"/><circle class="cls-2" cx="230.32" cy="52.36" r="11.53"/><path class="cls-2" d="M192.1,104.27v-6a5.33,5.33,0,0,1,5.33-5.33h13.23L224.1,76.57a9.4,9.4,0,0,1,7.25-3.39h0A9.84,9.84,0,0,1,241.17,83v34.6c0,5.41-4.42,10.61-9.82,10.61H214.84a5.8,5.8,0,0,0-5.36,3.58c-2.35,5.68-6.67,16.1-6.74,16.32"/><path class="cls-2" d="M192.1,147.33c.17-.53,6.54-19.37,9.61-27.87a6.18,6.18,0,0,1,5.81-4.08h11.27V104.26"/><line class="cls-2" x1="178.51" y1="148.83" x2="178.51" y2="112.89"/><path class="cls-2" d="M157,82.84V74.36a13.64,13.64,0,0,1,13.6-13.61h16.49a13.65,13.65,0,0,1,13.61,13.61V92.27"/><rect class="cls-2" x="167.58" y="27.17" width="21.8" height="22.98" rx="9.82"/><circle class="cls-2" cx="177.96" cy="90.08" r="87.58"/><polyline class="cls-3" points="175.37 185.5 175.37 201.5 182.37 201.5 182.37 177.5 175.37 177.5 175.37 189.5"/></svg>