<svg id="Layer_1" data-name="Layer 1" xmlns="http://www.w3.org/2000/svg" viewBox="0 0 348.9 272.85"><defs><style>.cls-1{fill:#95b749;stroke:#fcfcfc;stroke-width:0.25px;}.cls-1,.cls-2,.cls-4{stroke-miterlimit:10;}.cls-2{fill:none;stroke:#444;stroke-width:5px;}.cls-3{fill:#444;}.cls-4,.cls-5{fill:#fff;}.cls-4{stroke:#fff;}</style></defs><title>meetingTimeline</title><polyline class="cls-1" points="348.82 242.36 308.58 272.72 1.18 272.72 40.61 242.36 0.37 212 307.78 212 348.01 242.36"/><path class="cls-2" d="M129.08,92.32c.39.53,9.15,11.92,9.15,11.92h79.88l9.82-11.92" transform="translate(0)"/><circle class="cls-2" cx="126.7" cy="52.36" r="11.53"/><path class="cls-2" d="M164.92,104.27v-6a5.34,5.34,0,0,0-5.34-5.33H146.35L132.91,76.57a9.4,9.4,0,0,0-7.25-3.39h0A9.85,9.85,0,0,0,115.84,83v34.6c0,5.41,4.42,10.61,9.82,10.61h16.51a5.81,5.81,0,0,1,5.37,3.58c2.35,5.68,6.67,16.1,6.74,16.32" transform="translate(0)"/><path class="cls-2" d="M164.92,147.33c-.17-.53-6.54-19.37-9.62-27.87a6.17,6.17,0,0,0-5.81-4.08H138.23V104.26" transform="translate(0)"/><circle class="cls-2" cx="230.32" cy="52.36" r="11.53"/><path class="cls-2" d="M192.1,104.27v-6a5.33,5.33,0,0,1,5.33-5.33h13.23L224.1,76.57a9.4,9.4,0,0,1,7.25-3.39h0A9.84,9.84,0,0,1,241.17,83v34.6c0,5.41-4.42,10.61-9.82,10.61H214.84a5.8,5.8,0,0,0-5.36,3.58c-2.35,5.68-6.67,16.1-6.74,16.32" transform="translate(0)"/><path class="cls-2" d="M192.1,147.33c.17-.53,6.54-19.37,9.61-27.87a6.17,6.17,0,0,1,5.81-4.08h11.27V104.26" transform="translate(0)"/><line class="cls-2" x1="178.51" y1="148.83" x2="178.51" y2="112.89"/><path class="cls-2" d="M157,82.84V74.36a13.64,13.64,0,0,1,13.6-13.61h16.49A13.64,13.64,0,0,1,200.7,74.36V92.27" transform="translate(0)"/><rect class="cls-2" x="167.58" y="27.17" width="21.8" height="22.98" rx="9.82"/><circle class="cls-2" cx="177.96" cy="90.08" r="87.58"/><polyline class="cls-3" points="175.37 185.5 175.37 201.5 182.37 201.5 182.37 177.5 175.37 177.5 175.37 189.5"/><polygon class="cls-4" points="87.34 229.25 87.34 254.62 93.13 254.62 93.13 236.91 99.43 254.62 102.83 254.62 109.47 236.23 109.47 254.62 114.58 254.62 114.58 229.25 107.6 229.25 100.96 246.79 94.66 229.25 87.34 229.25"/><polygon class="cls-4" points="119.17 229.25 119.17 254.62 136.37 254.62 136.37 250.02 124.62 250.02 124.62 243.89 134.32 243.89 134.32 239.47 124.96 239.47 124.96 233.68 136.37 233.68 136.37 229.25 119.17 229.25"/><polygon class="cls-4" points="139.43 229.25 139.43 254.62 156.62 254.62 156.62 250.02 144.88 250.02 144.88 243.89 154.58 243.89 154.58 239.47 145.22 239.47 145.22 233.68 156.62 233.68 156.62 229.25 139.43 229.25"/><polygon class="cls-4" points="158.66 229.25 158.66 233.34 165.98 233.34 165.98 254.62 171.77 254.62 171.77 233.68 179.6 233.68 179.6 229.25 158.66 229.25"/><rect class="cls-4" x="182.37" y="229.26" width="5.91" height="25.36"/><polygon class="cls-4" points="193.22 229.25 193.22 254.62 198.32 254.62 198.32 238.96 208.37 254.62 213.98 254.62 213.98 229.25 208.53 229.25 208.53 245.6 198.83 229.25 193.22 229.25"/><path class="cls-5" d="M238.66,237.09c-1.53-11.41-21.11-11.92-21.11,3.23,0,11.23,7,18.38,21.11,11.57V241H228.11v4.09s5.1-.52,5.1,0v4.25c-4.44,1.94-9.53.68-10-7.71.51-11,9-9.48,10.21-4.37Z" transform="translate(0)"/><path class="cls-5" d="M256.19,236.74h5.62c-.38-5.24-3.91-7.65-9.7-8-6.44.35-10.22,2.81-9.2,9.05,2.05,7.32,13.62,7.32,12.94,9.7-.68,3.23-7.15,3.57-8.34-.85h-5.45c-.06,4.23,2.12,7.31,8.85,8,5.12.49,10.83-1,10.9-5.28s-2.13-7.19-6.81-9.19c-5.93-2.05-8.51-4.43-5.79-6.3A4.44,4.44,0,0,1,256.19,236.74Z" transform="translate(0)"/></svg>