<svg id="Layer_1" data-name="Layer 1" xmlns="http://www.w3.org/2000/svg" viewBox="0 0 348.89 274.85"><defs><style>.cls-1{fill:none;stroke:#444;stroke-width:5px;}.cls-1,.cls-3{stroke-miterlimit:10;}.cls-2{fill:#444;}.cls-3{fill:#95b749;stroke:#fcfcfc;stroke-width:0.25px;}</style></defs><title>planningTimeline</title><path class="cls-1" d="M213.31,30.45h0a17.85,17.85,0,0,0-17.82,17.81v1.46H126a7.61,7.61,0,0,0-7.58,7.58v80.07A7.61,7.61,0,0,0,126,145h86.48A18.68,18.68,0,0,0,231.1,127.1c0,.26,0,.52,0,.78V48.26A17.85,17.85,0,0,0,213.31,30.45Z"/><path class="cls-1" d="M213.31,30.45h0a17.85,17.85,0,0,0-17.82,17.81v79.61a17.84,17.84,0,0,1,17.81-17.81h0a17.84,17.84,0,0,1,17.81,17.81V48.26A17.85,17.85,0,0,0,213.31,30.45Z"/><path class="cls-1" d="M174.78,75.16H132a2.63,2.63,0,0,1-2.63-2.63h0V62.89A2.63,2.63,0,0,1,132,60.26h48.89a2.64,2.64,0,0,1,2.64,2.63h0v65.62a2.64,2.64,0,0,1-2.64,2.63H132a2.63,2.63,0,0,1-2.63-2.63h0V84.61"/><path class="cls-1" d="M164.23,110.42l-3.51-4a2.63,2.63,0,0,0-3.71-.24,1,1,0,0,0-.21.21c-3.12,3.43-9,9.89-11.05,12.23a2.65,2.65,0,0,1-1.95.87h-2a2.64,2.64,0,0,1-2.64-2.63h0V90.15a2.63,2.63,0,0,1,2.63-2.63h30.36a2.63,2.63,0,0,1,2.63,2.63h0v27.09a2.63,2.63,0,0,1-2.63,2.63H157"/><circle class="cls-1" cx="174.86" cy="90.99" r="88.49"/><polyline class="cls-2" points="171.37 187.5 171.37 203.5 178.37 203.5 178.37 179.5 171.37 179.5 171.37 191.5"/><polyline class="cls-3" points="348.82 244.36 308.58 274.72 1.18 274.72 40.61 244.36 0.37 214 307.78 214 348.01 244.36"/></svg>