<svg id="Layer_1" data-name="Layer 1" xmlns="http://www.w3.org/2000/svg" viewBox="0 0 348.9 274.35"><defs><style>.cls-1{fill:none;stroke:#444;stroke-width:4px;}.cls-1,.cls-3{stroke-miterlimit:10;}.cls-2{fill:#444;}.cls-3,.cls-5{fill:#95b749;}.cls-3{stroke:#fcfcfc;stroke-width:0.25px;}.cls-4{fill:#fcfcfc;}.cls-6{fill:#fff;}</style></defs><title>planningTimeline</title><path class="cls-1" d="M213.31,30.45h0a17.85,17.85,0,0,0-17.82,17.81v1.46H126a7.61,7.61,0,0,0-7.58,7.58v80.07A7.61,7.61,0,0,0,126,145h86.48a18.68,18.68,0,0,0,18.62-17.9V48.26A17.85,17.85,0,0,0,213.31,30.45Z" transform="translate(0 -0.5)"/><path class="cls-1" d="M213.31,30.45h0a17.85,17.85,0,0,0-17.82,17.81v79.61a17.84,17.84,0,0,1,17.81-17.81h0a17.84,17.84,0,0,1,17.81,17.81V48.26A17.85,17.85,0,0,0,213.31,30.45Z" transform="translate(0 -0.5)"/><path class="cls-1" d="M174.78,75.16H132a2.63,2.63,0,0,1-2.63-2.63h0V62.89A2.63,2.63,0,0,1,132,60.26h48.89a2.65,2.65,0,0,1,2.64,2.63h0v65.62a2.65,2.65,0,0,1-2.64,2.63H132a2.63,2.63,0,0,1-2.63-2.63h0V84.61" transform="translate(0 -0.5)"/><path class="cls-1" d="M164.23,110.42l-3.51-4a2.63,2.63,0,0,0-3.71-.24,1,1,0,0,0-.21.21c-3.12,3.43-9,9.89-11.05,12.23a2.65,2.65,0,0,1-1.95.87h-2a2.65,2.65,0,0,1-2.64-2.63h0V90.15a2.63,2.63,0,0,1,2.63-2.63h30.36a2.63,2.63,0,0,1,2.63,2.63h0v27.09a2.63,2.63,0,0,1-2.63,2.63H157" transform="translate(0 -0.5)"/><circle class="cls-1" cx="174.86" cy="90.49" r="88.49"/><polyline class="cls-2" points="171.37 187 171.37 203 178.37 203 178.37 179 171.37 179 171.37 191"/><polyline class="cls-3" points="348.82 243.86 308.58 274.22 1.18 274.22 40.61 243.86 0.37 213.5 307.78 213.5 348.01 243.86"/><path class="cls-4" d="M86.37,230.34V256h5.82v-8.3c8.64-.06,13.19-.46,14-8.42S99.08,229.26,86.37,230.34Z" transform="translate(0 -0.5)"/><path class="cls-5" d="M92.45,234.94v7.78s8.17,1.64,8.17-3.73S92.45,234.94,92.45,234.94Z" transform="translate(0 -0.5)"/><polygon class="cls-4" points="109.94 229.57 109.94 255.5 126.41 255.5 126.41 251.16 115.43 251.03 115.43 229.57 109.94 229.57"/><polygon class="cls-4" points="127.56 255.5 137.13 229.57 142.49 229.57 152.07 255.5 146.07 255.5 144.41 250.65 135.34 250.65 133.56 255.5 127.56 255.5"/><polygon class="cls-5" points="139.81 236.86 142.75 245.8 136.88 245.8 139.81 236.86"/><polygon class="cls-4" points="153.85 229.57 153.85 255.5 159.73 255.5 159.73 239.8 169.56 255.5 174.87 255.5 174.87 229.57 169.43 229.57 169.56 246.44 159.85 229.57 153.85 229.57"/><polygon class="cls-4" points="179.51 229.57 179.51 255.5 185 255.5 185 239.41 194.83 255.5 200.45 255.5 200.45 229.57 194.83 229.57 194.83 246.56 185.26 229.57 179.51 229.57"/><polygon class="cls-4" points="215.39 229.57 215.39 255.5 220.88 255.5 220.88 239.41 230.71 255.5 236.32 255.5 236.32 229.57 230.71 229.57 230.71 246.56 221.13 229.57 215.39 229.57"/><rect class="cls-4" x="205.05" y="229.57" width="5.62" height="25.93"/><path class="cls-6" d="M261.38,238.49c-1.53-11.41-21.1-11.92-21.1,3.23-.77,12,7.91,18.75,21.1,11.58V242.4H250.83v4.09s5.11-.51,5.11,0v4.25c-4.45,1.94-9.54.68-10.05-7.7.51-11,9-9.49,10.22-4.38Z" transform="translate(0 -0.5)"/></svg>