<svg id="Layer_1" data-name="Layer 1" xmlns="http://www.w3.org/2000/svg" viewBox="0 0 348.9 274.85"><defs><style>.cls-1{fill:none;stroke:#444;stroke-width:5px;}.cls-1,.cls-3{stroke-miterlimit:10;}.cls-2{fill:#444;}.cls-3,.cls-5{fill:#95b749;}.cls-3{stroke:#fcfcfc;stroke-width:0.25px;}.cls-4{fill:#fcfcfc;}.cls-6{fill:#fff;}</style></defs><title>planningTimeline</title><path class="cls-1" d="M213.31,30.45h0a17.85,17.85,0,0,0-17.82,17.81v1.46H126a7.61,7.61,0,0,0-7.58,7.58v80.07A7.61,7.61,0,0,0,126,145h86.48a18.68,18.68,0,0,0,18.62-17.9V48.26A17.85,17.85,0,0,0,213.31,30.45Z" transform="translate(0)"/><path class="cls-1" d="M213.31,30.45h0a17.85,17.85,0,0,0-17.82,17.81v79.61a17.84,17.84,0,0,1,17.81-17.81h0a17.84,17.84,0,0,1,17.81,17.81V48.26A17.85,17.85,0,0,0,213.31,30.45Z" transform="translate(0)"/><path class="cls-1" d="M174.78,75.16H132a2.63,2.63,0,0,1-2.63-2.63h0V62.89A2.63,2.63,0,0,1,132,60.26h48.89a2.65,2.65,0,0,1,2.64,2.63h0v65.62a2.65,2.65,0,0,1-2.64,2.63H132a2.63,2.63,0,0,1-2.63-2.63h0V84.61" transform="translate(0)"/><path class="cls-1" d="M164.23,110.42l-3.51-4a2.63,2.63,0,0,0-3.71-.24,1,1,0,0,0-.21.21c-3.12,3.43-9,9.89-11.05,12.23a2.65,2.65,0,0,1-1.95.87h-2a2.65,2.65,0,0,1-2.64-2.63h0V90.15a2.63,2.63,0,0,1,2.63-2.63h30.36a2.63,2.63,0,0,1,2.63,2.63h0v27.09a2.63,2.63,0,0,1-2.63,2.63H157" transform="translate(0)"/><circle class="cls-1" cx="174.86" cy="90.99" r="88.49"/><polyline class="cls-2" points="171.37 187.5 171.37 203.5 178.37 203.5 178.37 179.5 171.37 179.5 171.37 191.5"/><polyline class="cls-3" points="348.82 244.36 308.58 274.72 1.18 274.72 40.61 244.36 0.37 214 307.78 214 348.01 244.36"/><path class="cls-4" d="M86.37,230.34V256h5.82v-8.3c8.64-.06,13.19-.46,14-8.42S99.08,229.26,86.37,230.34Z" transform="translate(0)"/><path class="cls-5" d="M92.45,234.94v7.78s8.17,1.64,8.17-3.73S92.45,234.94,92.45,234.94Z" transform="translate(0)"/><polygon class="cls-4" points="109.94 230.07 109.94 256 126.41 256 126.41 251.66 115.43 251.53 115.43 230.07 109.94 230.07"/><polygon class="cls-4" points="127.56 256 137.13 230.07 142.49 230.07 152.07 256 146.07 256 144.41 251.15 135.34 251.15 133.56 256 127.56 256"/><polygon class="cls-5" points="139.81 237.36 142.75 246.3 136.88 246.3 139.81 237.36"/><polygon class="cls-4" points="153.85 230.07 153.85 256 159.73 256 159.73 240.3 169.56 256 174.87 256 174.87 230.07 169.43 230.07 169.56 246.94 159.85 230.07 153.85 230.07"/><polygon class="cls-4" points="179.51 230.07 179.51 256 185 256 185 239.91 194.83 256 200.45 256 200.45 230.07 194.83 230.07 194.83 247.06 185.26 230.07 179.51 230.07"/><polygon class="cls-4" points="215.39 230.07 215.39 256 220.88 256 220.88 239.91 230.71 256 236.32 256 236.32 230.07 230.71 230.07 230.71 247.06 221.13 230.07 215.39 230.07"/><rect class="cls-4" x="205.05" y="230.07" width="5.62" height="25.93"/><path class="cls-6" d="M261.38,238.49c-1.53-11.41-21.1-11.92-21.1,3.23-.77,12,7.91,18.75,21.1,11.58V242.4H250.83v4.09s5.11-.51,5.11,0v4.25c-4.45,1.94-9.54.68-10.05-7.7.51-11,9-9.49,10.22-4.38Z" transform="translate(0)"/></svg>