<svg id="Layer_1" data-name="Layer 1" xmlns="http://www.w3.org/2000/svg" viewBox="0 0 851.02 272.63"><defs><style>.cls-1{fill:#95b749;stroke:#fcfcfc;stroke-width:0.25px;}.cls-1,.cls-2{stroke-miterlimit:10;}.cls-2{fill:none;stroke:#444;stroke-width:5px;}.cls-3{fill:#444;}</style></defs><title>serviceTimeline_short</title><polyline class="cls-1" points="423.96 243.75 375.06 272.5 1.44 272.5 49.36 243.75 0.46 215 374.08 215 422.98 243.75"/><path class="cls-2" d="M157.67,95.32c.39.53,9.14,11.92,9.14,11.92H246.7l9.82-11.92"/><circle class="cls-2" cx="155.28" cy="55.36" r="11.53"/><path class="cls-2" d="M193.5,107.27v-6a5.33,5.33,0,0,0-5.33-5.33H174.94L161.5,79.57a9.4,9.4,0,0,0-7.25-3.39h0A9.84,9.84,0,0,0,144.43,86v34.6c0,5.41,4.42,10.61,9.82,10.61h16.51a5.8,5.8,0,0,1,5.36,3.58c2.35,5.68,6.67,16.1,6.75,16.32"/><path class="cls-2" d="M193.5,150.33c-.17-.53-6.54-19.37-9.61-27.87a6.17,6.17,0,0,0-5.81-4.08H166.81V107.26"/><circle class="cls-2" cx="258.9" cy="55.36" r="11.53"/><path class="cls-2" d="M220.68,107.27v-6A5.34,5.34,0,0,1,226,95.94h13.23l13.44-16.37a9.4,9.4,0,0,1,7.25-3.39h0A9.84,9.84,0,0,1,269.76,86v34.6c0,5.41-4.42,10.61-9.82,10.61H243.43a5.81,5.81,0,0,0-5.37,3.58c-2.35,5.68-6.67,16.1-6.74,16.32"/><path class="cls-2" d="M220.68,150.33c.17-.53,6.54-19.37,9.62-27.87a6.17,6.17,0,0,1,5.81-4.08h11.26V107.26"/><line class="cls-2" x1="207.09" y1="151.83" x2="207.09" y2="115.89"/><path class="cls-2" d="M185.55,85.84V77.36a13.66,13.66,0,0,1,13.61-13.61h16.49a13.64,13.64,0,0,1,13.6,13.61V95.27"/><rect class="cls-2" x="196.16" y="30.17" width="21.8" height="22.98" rx="9.82"/><circle class="cls-2" cx="206.54" cy="93.08" r="87.58"/><path class="cls-2" d="M594.52,127.1l-23.47,23.48"/><path class="cls-2" d="M583.49,125.36l-11,11"/><line class="cls-2" x1="598.05" y1="136.35" x2="589.17" y2="145.22"/><path class="cls-2" d="M598,86.55h0c3.28-3.28,16.88-16.89,20.17-20.17s6.88-6.25,10.46-9.23a84.54,84.54,0,0,1,11.62-8.07,120.84,120.84,0,0,1,13.13-6.56A113.71,113.71,0,0,1,668,37.41c2.58-.69,5.24-1.32,8-1.84,1.39-.26,2.8-.49,4.24-.69s2.92-.35,4.49-.44a1.78,1.78,0,0,1,1.88,1.69v.19c-.08,1.56-.24,3-.44,4.49s-.43,2.85-.69,4.23c-.52,2.76-1.15,5.42-1.85,8a114.74,114.74,0,0,1-5.1,14.6A121.61,121.61,0,0,1,672,80.76a84.54,84.54,0,0,1-8.07,11.62c-3,3.59-5.95,7.18-9.23,10.46L634.51,123h0Z"/><polygon class="cls-2" points="631.49 120 605.64 129.75 591.7 115.84 601.04 89.56 631.49 120"/><circle class="cls-2" cx="650.73" cy="70.31" r="9.41"/><path class="cls-2" d="M584.11,84.57l14.06,1.85,19.31-19.31L608.65,66a16.63,16.63,0,0,0-13.9,4.72L583.28,82.14a1.43,1.43,0,0,0,.83,2.43Z"/><path class="cls-2" d="M636.49,137l-1.87-14.26,19.58-19.6,1.18,9a16.86,16.86,0,0,1-4.78,14.09L639,137.77a1.45,1.45,0,0,1-2.05,0A1.5,1.5,0,0,1,636.49,137Z"/><line class="cls-2" x1="631.91" y1="89.18" x2="605.17" y2="115.92"/><path class="cls-2" d="M683.56,53.77a18.27,18.27,0,0,1-16.23-16.18"/><circle class="cls-2" cx="632.7" cy="93.24" r="90.74"/><path class="cls-3" d="M632.7,184v0Z"/><polyline class="cls-3" points="627.96 203.5 635.96 203.5 635.96 183.99 627.96 183.5"/><polyline class="cls-3" points="202.96 201.5 210.96 201.5 210.96 181.99 202.96 181.5"/><polyline class="cls-1" points="850.96 243.75 802.06 272.5 428.44 272.5 476.36 243.75 427.46 215 801.08 215 849.98 243.75"/></svg>