<svg id="Layer_1" data-name="Layer 1" xmlns="http://www.w3.org/2000/svg" viewBox="0 0 1000.95 274.63"><defs><style>.cls-1{fill:#95b749;stroke:#fcfcfc;stroke-width:0.25px;}.cls-1,.cls-2{stroke-miterlimit:10;}.cls-2{fill:none;stroke:#444;stroke-width:5px;}.cls-3{fill:#444;}</style></defs><title>serviceTimeline</title><polyline class="cls-1" points="330.32 245.75 292.22 274.5 1.14 274.5 38.47 245.75 0.37 217 291.45 217 329.56 245.75"/><polyline class="cls-1" points="665.6 245.75 627.5 274.5 336.41 274.5 373.75 245.75 335.65 217 626.73 217 664.83 245.75"/><polyline class="cls-1" points="1000.87 245.75 962.77 274.5 671.69 274.5 709.03 245.75 670.93 217 962.01 217 1000.11 245.75"/><path class="cls-2" d="M110.58,97.32c.39.53,9.15,11.92,9.15,11.92h79.88l9.82-11.92"/><circle class="cls-2" cx="108.2" cy="57.36" r="11.53"/><path class="cls-2" d="M146.42,109.27v-6a5.34,5.34,0,0,0-5.34-5.33H127.85L114.41,81.57a9.4,9.4,0,0,0-7.25-3.39h0A9.85,9.85,0,0,0,97.34,88v34.6c0,5.41,4.42,10.61,9.82,10.61h16.51a5.81,5.81,0,0,1,5.37,3.58c2.35,5.68,6.67,16.1,6.74,16.32"/><path class="cls-2" d="M146.42,152.33c-.17-.53-6.54-19.37-9.62-27.87a6.16,6.16,0,0,0-5.81-4.08H119.73V109.26"/><circle class="cls-2" cx="211.82" cy="57.36" r="11.53"/><path class="cls-2" d="M173.6,109.27v-6a5.33,5.33,0,0,1,5.33-5.33h13.23L205.6,81.57a9.4,9.4,0,0,1,7.25-3.39h0A9.84,9.84,0,0,1,222.67,88v34.6c0,5.41-4.42,10.61-9.82,10.61H196.34a5.8,5.8,0,0,0-5.36,3.58c-2.35,5.68-6.67,16.1-6.74,16.32"/><path class="cls-2" d="M173.6,152.33c.17-.53,6.54-19.37,9.61-27.87a6.18,6.18,0,0,1,5.81-4.08h11.27V109.26"/><line class="cls-2" x1="160.01" y1="153.83" x2="160.01" y2="117.89"/><path class="cls-2" d="M138.47,87.84V79.36a13.64,13.64,0,0,1,13.6-13.61h16.49a13.65,13.65,0,0,1,13.61,13.61V97.27"/><rect class="cls-2" x="149.08" y="32.17" width="21.8" height="22.98" rx="9.82"/><circle class="cls-2" cx="159.46" cy="95.08" r="87.58"/><path class="cls-2" d="M538.81,33.45h0A17.85,17.85,0,0,0,521,51.26v1.46H451.51a7.61,7.61,0,0,0-7.58,7.58v80.07a7.61,7.61,0,0,0,7.58,7.58H538A18.68,18.68,0,0,0,556.6,130.1c0,.26,0,.52,0,.78V51.26A17.85,17.85,0,0,0,538.81,33.45Z"/><path class="cls-2" d="M538.81,33.45h0A17.85,17.85,0,0,0,521,51.26v79.61a17.84,17.84,0,0,1,17.81-17.81h0a17.84,17.84,0,0,1,17.81,17.81V51.26A17.85,17.85,0,0,0,538.81,33.45Z"/><path class="cls-2" d="M500.28,78.16H457.47a2.63,2.63,0,0,1-2.63-2.63h0V65.89a2.63,2.63,0,0,1,2.63-2.63h48.89A2.64,2.64,0,0,1,509,65.89h0v65.62a2.64,2.64,0,0,1-2.64,2.63H457.47a2.63,2.63,0,0,1-2.63-2.63h0V87.61"/><path class="cls-2" d="M489.73,113.42l-3.51-4a2.63,2.63,0,0,0-3.71-.24,1,1,0,0,0-.21.21c-3.12,3.43-8.95,9.89-11.05,12.23a2.65,2.65,0,0,1-1.95.87h-2a2.64,2.64,0,0,1-2.64-2.63h0V93.15a2.63,2.63,0,0,1,2.63-2.63h30.36a2.63,2.63,0,0,1,2.63,2.63h0v27.09a2.63,2.63,0,0,1-2.63,2.63H482.46"/><circle class="cls-2" cx="500.36" cy="93.99" r="88.49"/><path class="cls-2" d="M789.43,127.1,766,150.58"/><path class="cls-2" d="M778.4,125.36l-11,11"/><line class="cls-2" x1="792.96" y1="136.35" x2="784.09" y2="145.22"/><path class="cls-2" d="M793,86.55h0c3.29-3.28,16.88-16.89,20.18-20.17s6.87-6.25,10.46-9.23a83.34,83.34,0,0,1,11.62-8.07,121.61,121.61,0,0,1,13.12-6.56,114.25,114.25,0,0,1,14.6-5.11c2.58-.69,5.24-1.32,8-1.84q2.07-.39,4.23-.69c1.44-.2,2.92-.35,4.49-.44a1.78,1.78,0,0,1,1.88,1.69v.19c-.08,1.56-.24,3-.44,4.49s-.43,2.85-.69,4.23c-.52,2.76-1.14,5.42-1.84,8a116.31,116.31,0,0,1-5.1,14.6,121.68,121.68,0,0,1-6.57,13.12,82.82,82.82,0,0,1-8.07,11.62c-3,3.59-5.94,7.18-9.22,10.46L829.43,123h0Z"/><polygon class="cls-2" points="826.4 120 800.55 129.75 786.61 115.84 795.96 89.56 826.4 120"/><circle class="cls-2" cx="845.64" cy="70.31" r="9.41"/><path class="cls-2" d="M779,84.57l14.06,1.85,19.31-19.31L803.56,66a16.64,16.64,0,0,0-13.9,4.72L778.2,82.14a1.43,1.43,0,0,0,.82,2.43Z"/><path class="cls-2" d="M831.41,137l-1.87-14.26,19.58-19.6,1.17,9a16.83,16.83,0,0,1-4.78,14.09l-11.63,11.63a1.46,1.46,0,0,1-2.06,0A1.49,1.49,0,0,1,831.41,137Z"/><line class="cls-2" x1="826.82" y1="89.18" x2="800.08" y2="115.92"/><path class="cls-2" d="M878.47,53.77a18.27,18.27,0,0,1-16.23-16.18"/><circle class="cls-2" cx="827.62" cy="93.24" r="90.74"/><path class="cls-3" d="M827.62,184v0Z"/><polyline class="cls-3" points="822.87 203.5 830.87 203.5 830.87 183.99 822.87 183.5"/><polyline class="cls-3" points="495.87 203.5 503.87 203.5 503.87 183.99 495.87 183.5"/><polyline class="cls-3" points="155.87 203.5 163.87 203.5 163.87 183.99 155.87 183.5"/></svg>