<svg id="Layer_1" data-name="Layer 1" xmlns="http://www.w3.org/2000/svg" viewBox="0 0 348.9 277.35"><defs><style>.cls-1{fill:none;stroke:#444;stroke-width:4px;}.cls-1,.cls-3,.cls-4{stroke-miterlimit:10;}.cls-2{fill:#444;}.cls-3,.cls-6{fill:#95b749;}.cls-3{stroke:#fcfcfc;stroke-width:0.25px;}.cls-4,.cls-7{fill:#fff;}.cls-4{stroke:#fff;}.cls-5{fill:#fcfcfc;}</style></defs><title>startTimeline</title><path class="cls-1" d="M136.93,127.1l-23.46,23.48" transform="translate(0 -0.5)"/><path class="cls-1" d="M125.9,125.36l-11,11" transform="translate(0 -0.5)"/><line class="cls-1" x1="140.46" y1="135.85" x2="131.59" y2="144.72"/><path class="cls-1" d="M140.45,86.55h0c3.29-3.28,16.88-16.89,20.18-20.17s6.87-6.25,10.46-9.23a84.54,84.54,0,0,1,11.62-8.07,121.61,121.61,0,0,1,13.12-6.56,114.25,114.25,0,0,1,14.6-5.11c2.58-.69,5.24-1.32,8-1.84q2.07-.39,4.23-.69c1.44-.2,2.92-.35,4.49-.44A1.78,1.78,0,0,1,229,36.13v.19c-.08,1.56-.24,3-.44,4.49s-.43,2.85-.69,4.23c-.52,2.76-1.14,5.42-1.84,8a116.31,116.31,0,0,1-5.1,14.6,121.68,121.68,0,0,1-6.57,13.12,81.67,81.67,0,0,1-8.07,11.62c-3,3.59-5.94,7.18-9.22,10.46L176.93,123h0Z" transform="translate(0 -0.5)"/><polygon class="cls-1" points="173.9 119.5 148.05 129.25 134.11 115.34 143.46 89.06 173.9 119.5"/><circle class="cls-1" cx="193.14" cy="69.81" r="9.41"/><path class="cls-1" d="M126.52,84.57l14.06,1.85,19.31-19.31L151.06,66a16.64,16.64,0,0,0-13.9,4.72L125.7,82.14a1.42,1.42,0,0,0,0,2A1.4,1.4,0,0,0,126.52,84.57Z" transform="translate(0 -0.5)"/><path class="cls-1" d="M178.91,137,177,122.69l19.58-19.6,1.17,9a16.82,16.82,0,0,1-4.75,14l-11.63,11.63a1.45,1.45,0,0,1-2.05,0h0A1.48,1.48,0,0,1,178.91,137Z" transform="translate(0 -0.5)"/><line class="cls-1" x1="174.32" y1="88.68" x2="147.58" y2="115.42"/><path class="cls-1" d="M226,53.77a18.27,18.27,0,0,1-16.23-16.18" transform="translate(0 -0.5)"/><circle class="cls-1" cx="175.12" cy="92.74" r="90.74"/><polyline class="cls-2" points="171.37 190 171.37 206 178.37 206 178.37 182 171.37 182 171.37 194"/><polyline class="cls-3" points="348.82 246.86 308.58 277.22 1.18 277.22 40.61 246.86 0.37 216.5 307.78 216.5 348.01 246.86"/><polygon class="cls-4" points="143.54 233.39 143.54 237.48 150.86 237.48 150.86 258.75 156.65 258.75 156.65 237.82 164.48 237.82 164.48 233.39 143.54 233.39"/><polygon class="cls-4" points="210.48 233.39 210.48 237.48 217.79 237.48 217.79 258.75 223.58 258.75 223.58 237.82 231.41 237.82 231.41 233.39 210.48 233.39"/><polygon class="cls-5" points="162.87 259.04 172.44 233.11 177.8 233.11 187.38 259.04 181.38 259.04 179.72 254.19 170.66 254.19 168.87 259.04 162.87 259.04"/><polygon class="cls-6" points="175.12 240.29 178.06 249.22 172.19 249.22 175.12 240.29"/><path class="cls-7" d="M136.12,241.61h5.62c-.38-5.25-3.91-7.65-9.7-8-6.44.36-10.22,2.81-9.19,9,2.2,6.07,12.78,6.16,12.93,9.7-.68,3.23-7.15,3.57-8.34-.85H122c-.06,4.24,2.12,7.31,8.86,8,5.11.49,10.37-1,10.63-5.54s-1.87-6.92-6.55-8.93c-5.93-2-8.51-4.42-5.79-6.3S135.31,238.19,136.12,241.61Z" transform="translate(0 -0.5)"/><path class="cls-7" d="M189.47,233.61v25.93H195v-9.2h4l4.6,8.92h6l-5.36-10.71c6.19-3.64,5.87-13.34-3.45-14.94Z" transform="translate(0 -0.5)"/><path class="cls-6" d="M195,238.34v6.92s8.12,1.31,8.1-3.46S195,238.34,195,238.34Z" transform="translate(0 -0.5)"/></svg>