<svg id="Layer_1" data-name="Layer 1" xmlns="http://www.w3.org/2000/svg" viewBox="0 0 348.9 277.85"><defs><style>.cls-1{fill:none;stroke:#444;stroke-width:5px;}.cls-1,.cls-3,.cls-4{stroke-miterlimit:10;}.cls-2{fill:#444;}.cls-3,.cls-6{fill:#95b749;}.cls-3{stroke:#fcfcfc;stroke-width:0.25px;}.cls-4,.cls-7{fill:#fff;}.cls-4{stroke:#fff;}.cls-5{fill:#fcfcfc;}</style></defs><title>startTimeline</title><path class="cls-1" d="M136.93,127.1l-23.46,23.48" transform="translate(0)"/><path class="cls-1" d="M125.9,125.36l-11,11" transform="translate(0)"/><line class="cls-1" x1="140.46" y1="136.35" x2="131.59" y2="145.22"/><path class="cls-1" d="M140.45,86.55h0c3.29-3.28,16.88-16.89,20.18-20.17s6.87-6.25,10.46-9.23a83.94,83.94,0,0,1,11.62-8.07,121.61,121.61,0,0,1,13.12-6.56,114.25,114.25,0,0,1,14.6-5.11c2.58-.69,5.24-1.32,8-1.84q2.07-.39,4.23-.69c1.44-.2,2.92-.35,4.49-.44A1.78,1.78,0,0,1,229,36.13v.19c-.08,1.56-.24,3-.44,4.49s-.43,2.85-.69,4.23c-.52,2.76-1.14,5.42-1.84,8a116.31,116.31,0,0,1-5.1,14.6,121.68,121.68,0,0,1-6.57,13.12,82.24,82.24,0,0,1-8.07,11.62c-3,3.59-5.94,7.18-9.22,10.46L176.93,123h0Z" transform="translate(0)"/><polygon class="cls-1" points="173.9 120 148.05 129.75 134.11 115.84 143.46 89.56 173.9 120"/><circle class="cls-1" cx="193.14" cy="70.31" r="9.41"/><path class="cls-1" d="M126.52,84.57l14.06,1.85,19.31-19.31L151.06,66a16.64,16.64,0,0,0-13.9,4.72L125.7,82.14a1.42,1.42,0,0,0,0,2A1.37,1.37,0,0,0,126.52,84.57Z" transform="translate(0)"/><path class="cls-1" d="M178.91,137,177,122.69l19.58-19.6,1.17,9a16.83,16.83,0,0,1-4.75,14l-11.63,11.63a1.45,1.45,0,0,1-2.06,0A1.44,1.44,0,0,1,178.91,137Z" transform="translate(0)"/><line class="cls-1" x1="174.32" y1="89.18" x2="147.58" y2="115.92"/><path class="cls-1" d="M226,53.77a18.27,18.27,0,0,1-16.23-16.18" transform="translate(0)"/><circle class="cls-1" cx="175.12" cy="93.24" r="90.74"/><polyline class="cls-2" points="171.37 190.5 171.37 206.5 178.37 206.5 178.37 182.5 171.37 182.5 171.37 194.5"/><polyline class="cls-3" points="348.82 247.36 308.58 277.72 1.18 277.72 40.61 247.36 0.37 217 307.78 217 348.01 247.36"/><polygon class="cls-4" points="143.54 233.89 143.54 237.98 150.86 237.98 150.86 259.25 156.65 259.25 156.65 238.32 164.48 238.32 164.48 233.89 143.54 233.89"/><polygon class="cls-4" points="210.48 233.89 210.48 237.98 217.79 237.98 217.79 259.25 223.58 259.25 223.58 238.32 231.41 238.32 231.41 233.89 210.48 233.89"/><polygon class="cls-5" points="162.87 259.54 172.44 233.61 177.8 233.61 187.38 259.54 181.38 259.54 179.72 254.69 170.66 254.69 168.87 259.54 162.87 259.54"/><polygon class="cls-6" points="175.12 240.79 178.06 249.72 172.19 249.72 175.12 240.79"/><path class="cls-7" d="M136.12,241.61h5.62c-.38-5.25-3.91-7.65-9.7-8-6.44.36-10.22,2.81-9.19,9,2.2,6.07,12.78,6.16,12.93,9.7-.68,3.23-7.15,3.57-8.34-.85H122c-.06,4.24,2.12,7.31,8.86,8,5.11.49,10.37-1,10.63-5.54s-1.87-6.92-6.55-8.93c-5.93-2-8.51-4.42-5.79-6.3S135.31,238.19,136.12,241.61Z" transform="translate(0)"/><path class="cls-7" d="M189.47,233.61v25.93H195v-9.2H199l4.6,8.92h6l-5.36-10.71c6.19-3.64,5.87-13.34-3.45-14.94Z" transform="translate(0)"/><path class="cls-6" d="M195,238.34v6.92s8.12,1.31,8.1-3.46S195,238.34,195,238.34Z" transform="translate(0)"/></svg>